<svg width="50" height="50" viewBox="0 0 50 50" fill="none" xmlns="http://www.w3.org/2000/svg">
<path d="M8.33325 24.4999C8.05711 24.4999 7.83325 24.7238 7.83325 24.9999C7.83325 25.2761 8.05711 25.4999 8.33325 25.4999L8.33325 24.4999ZM33.6852 14.2281C33.4891 14.0337 33.1725 14.0351 32.9781 14.2313C32.7837 14.4274 32.7851 14.744 32.9813 14.9384L33.6852 14.2281ZM37.0061 18.2235L36.6541 18.5786L36.6541 18.5786L37.0061 18.2235ZM37.0061 31.7764L36.6541 31.4212L36.6541 31.4212L37.0061 31.7764ZM32.9813 35.0615C32.7851 35.2558 32.7837 35.5724 32.9781 35.7686C33.1725 35.9647 33.4891 35.9661 33.6852 35.7717L32.9813 35.0615ZM41.6251 24.3471L41.1292 24.4104L41.1292 24.4104L41.6251 24.3471ZM41.6251 25.6527L41.1292 25.5895L41.1292 25.5895L41.6251 25.6527ZM8.33325 24.9999L8.33325 25.4999L41.6666 25.4999L41.6666 24.9999L41.6666 24.4999L8.33325 24.4999L8.33325 24.9999ZM33.3333 14.5833L32.9813 14.9384L36.6541 18.5786L37.0061 18.2235L37.3581 17.8683L33.6852 14.2281L33.3333 14.5833ZM37.0061 31.7764L36.6541 31.4212L32.9813 35.0615L33.3333 35.4166L33.6852 35.7717L37.3581 32.1315L37.0061 31.7764ZM37.0061 18.2235L36.6541 18.5786C38.127 20.0384 39.2011 21.104 39.9396 22.0236C40.6718 22.9353 41.0329 23.6548 41.1292 24.4104L41.6251 24.3471L42.1211 24.2839C41.9919 23.2703 41.508 22.3795 40.7193 21.3974C39.9369 20.4232 38.8142 19.3116 37.3581 17.8683L37.0061 18.2235ZM37.0061 31.7764L37.3581 32.1315C38.8142 30.6883 39.9369 29.5766 40.7193 28.6024C41.508 27.6203 41.9919 26.7295 42.1211 25.7159L41.6251 25.6527L41.1292 25.5895C41.0329 26.345 40.6718 27.0646 39.9396 27.9762C39.2011 28.8958 38.127 29.9615 36.6541 31.4212L37.0061 31.7764ZM41.6251 24.3471L41.1292 24.4104C41.1541 24.6061 41.1666 24.803 41.1666 24.9999H41.6666H42.1666C42.1666 24.7608 42.1514 24.5216 42.1211 24.2839L41.6251 24.3471ZM41.6666 24.9999H41.1666C41.1666 25.1968 41.1541 25.3937 41.1292 25.5895L41.6251 25.6527L42.1211 25.7159C42.1514 25.4782 42.1666 25.2391 42.1666 24.9999H41.6666Z" fill="#C26F4C"/>
</svg>
