<svg width="50" height="50" viewBox="0 0 50 50" fill="none" xmlns="http://www.w3.org/2000/svg">
<path d="M4.16675 26.271H39.5834" stroke="white" stroke-width="1.5" stroke-miterlimit="10" stroke-linecap="round" stroke-linejoin="round"/>
<path d="M39.5834 21.4168V36.3127C39.5209 42.2502 37.8959 43.7502 31.7084 43.7502H12.0418C5.75014 43.7502 4.16675 42.1877 4.16675 35.9793V21.4168C4.16675 15.7918 5.47925 13.9793 10.4167 13.6877C10.9167 13.6668 11.4585 13.646 12.0418 13.646H31.7084C38 13.646 39.5834 15.2085 39.5834 21.4168Z" stroke="white" stroke-width="1.5" stroke-linecap="round" stroke-linejoin="round"/>
<path d="M45.8334 14.0208V28.5833C45.8334 34.2083 44.5209 36.0208 39.5834 36.3125V21.4167C39.5834 15.2083 38 13.6458 31.7084 13.6458H12.0418C11.4585 13.6458 10.9167 13.6667 10.4167 13.6875C10.4792 7.75 12.1043 6.25 18.2918 6.25H37.9584C44.25 6.25 45.8334 7.8125 45.8334 14.0208Z" stroke="white" stroke-width="1.5" stroke-linecap="round" stroke-linejoin="round"/>
<path d="M10.9375 37.1042H14.5208" stroke="white" stroke-width="1.5" stroke-miterlimit="10" stroke-linecap="round" stroke-linejoin="round"/>
<path d="M18.979 37.1042H26.1457" stroke="white" stroke-width="1.5" stroke-miterlimit="10" stroke-linecap="round" stroke-linejoin="round"/>
</svg>
