<svg width="50" height="50" viewBox="0 0 50 50" fill="none" xmlns="http://www.w3.org/2000/svg">
<path d="M37.5 39.2916H35.9166C34.25 39.2916 32.6667 39.9374 31.5 41.1041L27.9375 44.6249C26.3125 46.2291 23.6666 46.2291 22.0416 44.6249L18.4792 41.1041C17.3125 39.9374 15.7083 39.2916 14.0625 39.2916H12.5C9.04167 39.2916 6.25 36.5208 6.25 33.1042V10.3749C6.25 6.95827 9.04167 4.1875 12.5 4.1875H37.5C40.9583 4.1875 43.75 6.95827 43.75 10.3749V33.1042C43.75 36.5 40.9583 39.2916 37.5 39.2916Z" stroke="white" stroke-width="1.5" stroke-miterlimit="10" stroke-linecap="round" stroke-linejoin="round"/>
<path d="M25.5833 31.1667C25.2708 31.2709 24.75 31.2709 24.4167 31.1667C21.7083 30.2292 15.625 26.375 15.625 19.8125C15.625 16.9167 17.9583 14.5833 20.8333 14.5833C22.5417 14.5833 24.0417 15.3958 25 16.6666C25.9583 15.3958 27.4583 14.5833 29.1667 14.5833C32.0417 14.5833 34.375 16.9167 34.375 19.8125C34.3542 26.375 28.2917 30.2292 25.5833 31.1667Z" stroke="white" stroke-width="1.5" stroke-linecap="round" stroke-linejoin="round"/>
</svg>
