<svg width="46" height="46" viewBox="0 0 46 46" fill="none" xmlns="http://www.w3.org/2000/svg">
<path d="M1.57454 20.7538C1.09469 16.4351 0.854767 14.2758 2.09693 12.888C3.3391 11.5002 5.5117 11.5002 9.8569 11.5002H12.5834H33.4167H36.1432C40.4884 11.5002 42.661 11.5002 43.9032 12.888C45.1454 14.2758 44.9054 16.4351 44.4256 20.7538L43.8093 26.3008C42.8298 35.116 42.34 39.5237 39.3738 42.1786C36.4076 44.8335 31.9384 44.8335 23.0001 44.8335C14.0617 44.8335 9.59257 44.8335 6.62633 42.1786C3.66008 39.5237 3.17035 35.116 2.19088 26.3008L1.57454 20.7538Z" fill="#C26F4C"/>
<path d="M33.4167 11.5002C33.4167 11.4022 33.4154 11.3046 33.4127 11.2073C33.2576 5.58975 28.6551 1.0835 23.0001 1.0835C17.397 1.0835 12.8272 5.50727 12.5928 11.0526C12.5866 11.201 12.5834 11.3502 12.5834 11.5002M33.4167 11.5002H12.5834M33.4167 11.5002H36.1432C40.4884 11.5002 42.661 11.5002 43.9032 12.888C45.1454 14.2758 44.9054 16.4351 44.4256 20.7538L43.8093 26.3008C42.8298 35.116 42.34 39.5237 39.3738 42.1786C36.4076 44.8335 31.9384 44.8335 23.0001 44.8335C14.0617 44.8335 9.59257 44.8335 6.62633 42.1786C3.66008 39.5237 3.17035 35.116 2.19088 26.3008L1.57454 20.7538C1.09469 16.4351 0.854767 14.2758 2.09693 12.888C3.3391 11.5002 5.5117 11.5002 9.8569 11.5002H12.5834" stroke="#C26F4C" stroke-width="1.5"/>
</svg>
