<svg width="50" height="50" viewBox="0 0 50 50" fill="none" xmlns="http://www.w3.org/2000/svg">
<path d="M3.57454 21.7538C3.09469 17.4351 2.85477 15.2758 4.09693 13.888C5.3391 12.5002 7.5117 12.5002 11.8569 12.5002H14.5834H35.4167H38.1432C42.4884 12.5002 44.661 12.5002 45.9032 13.888C47.1454 15.2758 46.9054 17.4351 46.4256 21.7538L45.8093 27.3008C44.8298 36.116 44.34 40.5237 41.3738 43.1786C38.4076 45.8335 33.9384 45.8335 25.0001 45.8335C16.0617 45.8335 11.5926 45.8335 8.62633 43.1786C5.66008 40.5237 5.17035 36.116 4.19088 27.3008L3.57454 21.7538Z" fill="white"/>
<path d="M35.4167 12.5002C35.4167 12.4022 35.4154 12.3046 35.4127 12.2073C35.2576 6.58975 30.6551 2.0835 25.0001 2.0835C19.397 2.0835 14.8272 6.50727 14.5928 12.0526C14.5866 12.201 14.5834 12.3502 14.5834 12.5002M35.4167 12.5002H14.5834M35.4167 12.5002H38.1432C42.4884 12.5002 44.661 12.5002 45.9032 13.888C47.1454 15.2758 46.9054 17.4351 46.4256 21.7538L45.8093 27.3008C44.8298 36.116 44.34 40.5237 41.3738 43.1786C38.4076 45.8335 33.9384 45.8335 25.0001 45.8335C16.0617 45.8335 11.5926 45.8335 8.62633 43.1786C5.66008 40.5237 5.17035 36.116 4.19088 27.3008L3.57454 21.7538C3.09469 17.4351 2.85477 15.2758 4.09693 13.888C5.3391 12.5002 7.5117 12.5002 11.8569 12.5002H14.5834" stroke="#FAFAFA" stroke-width="1.5"/>
</svg>
