<svg width="50" height="50" viewBox="0 0 50 50" fill="none" xmlns="http://www.w3.org/2000/svg">
<path d="M31.25 4.16663V25C31.25 27.2916 29.375 29.1666 27.0833 29.1666H4.16663V15.8749C5.68746 17.6874 8.02085 18.8125 10.6042 18.75C12.7083 18.7083 14.6041 17.8958 16.0208 16.5416C16.6666 16 17.2083 15.3124 17.625 14.5624C18.375 13.2916 18.7916 11.7916 18.75 10.2291C18.6875 7.79157 17.6042 5.64579 15.9167 4.16663H31.25Z" stroke="white" stroke-width="1.5" stroke-linecap="round" stroke-linejoin="round"/>
<path d="M45.8333 29.1666V35.4166C45.8333 38.875 43.0416 41.6666 39.5833 41.6666H37.5C37.5 39.375 35.625 37.5 33.3333 37.5C31.0416 37.5 29.1666 39.375 29.1666 41.6666H20.8333C20.8333 39.375 18.9583 37.5 16.6666 37.5C14.375 37.5 12.5 39.375 12.5 41.6666H10.4166C6.95829 41.6666 4.16663 38.875 4.16663 35.4166V29.1666H27.0833C29.375 29.1666 31.25 27.2916 31.25 25V10.4166H35.0834C36.5834 10.4166 37.9583 11.2291 38.7083 12.5208L42.2707 18.75H39.5833C38.4375 18.75 37.5 19.6875 37.5 20.8333V27.0833C37.5 28.2291 38.4375 29.1666 39.5833 29.1666H45.8333Z" stroke="white" stroke-width="1.5" stroke-linecap="round" stroke-linejoin="round"/>
<path d="M16.6667 45.8333C18.9679 45.8333 20.8333 43.9679 20.8333 41.6667C20.8333 39.3655 18.9679 37.5 16.6667 37.5C14.3655 37.5 12.5 39.3655 12.5 41.6667C12.5 43.9679 14.3655 45.8333 16.6667 45.8333Z" stroke="white" stroke-width="1.5" stroke-linecap="round" stroke-linejoin="round"/>
<path d="M33.3333 45.8333C35.6345 45.8333 37.5 43.9679 37.5 41.6667C37.5 39.3655 35.6345 37.5 33.3333 37.5C31.0321 37.5 29.1666 39.3655 29.1666 41.6667C29.1666 43.9679 31.0321 45.8333 33.3333 45.8333Z" stroke="white" stroke-width="1.5" stroke-linecap="round" stroke-linejoin="round"/>
<path d="M45.8333 25V29.1667H39.5833C38.4375 29.1667 37.5 28.2292 37.5 27.0833V20.8333C37.5 19.6875 38.4375 18.75 39.5833 18.75H42.2708L45.8333 25Z" stroke="white" stroke-width="1.5" stroke-linecap="round" stroke-linejoin="round"/>
<path d="M18.75 10.4167C18.75 12.9167 17.6459 15.1459 15.9167 16.6667C14.4376 17.9584 12.5209 18.75 10.4167 18.75C5.81254 18.75 2.08337 15.0209 2.08337 10.4167C2.08337 7.79171 3.29171 5.43755 5.20837 3.91672C6.64587 2.77088 8.45837 2.08337 10.4167 2.08337C15.0209 2.08337 18.75 5.81254 18.75 10.4167Z" stroke="white" stroke-width="1.5" stroke-miterlimit="10" stroke-linecap="round" stroke-linejoin="round"/>
<path d="M10.9375 7.8125V10.9375L8.33337 12.5" stroke="white" stroke-width="1.5" stroke-miterlimit="10" stroke-linecap="round" stroke-linejoin="round"/>
</svg>
