<svg width="32" height="42" viewBox="0 0 32 42" fill="none" xmlns="http://www.w3.org/2000/svg">
<path d="M24.3334 9.49984C24.3334 14.1022 20.6025 17.8332 16.0001 17.8332C11.3977 17.8332 7.66675 14.1022 7.66675 9.49984C7.66675 4.89746 11.3977 1.1665 16.0001 1.1665C20.6025 1.1665 24.3334 4.89746 24.3334 9.49984Z" fill="white"/>
<path d="M1.41675 32.4165C1.41675 27.8141 5.14771 24.0832 9.75008 24.0832H22.2501C26.8525 24.0832 30.5834 27.8141 30.5834 32.4165C30.5834 37.0189 26.8525 40.7498 22.2501 40.7498H9.75008C5.14771 40.7498 1.41675 37.0189 1.41675 32.4165Z" fill="white"/>
<path d="M24.3334 9.49984H23.5834C23.5834 13.688 20.1882 17.0832 16.0001 17.0832V17.8332V18.5832C21.0167 18.5832 25.0834 14.5164 25.0834 9.49984H24.3334ZM16.0001 17.8332V17.0832C11.8119 17.0832 8.41675 13.688 8.41675 9.49984H7.66675H6.91675C6.91675 14.5164 10.9835 18.5832 16.0001 18.5832V17.8332ZM7.66675 9.49984H8.41675C8.41675 5.31168 11.8119 1.9165 16.0001 1.9165V1.1665V0.416504C10.9835 0.416504 6.91675 4.48325 6.91675 9.49984H7.66675ZM16.0001 1.1665V1.9165C20.1882 1.9165 23.5834 5.31168 23.5834 9.49984H24.3334H25.0834C25.0834 4.48325 21.0167 0.416504 16.0001 0.416504V1.1665ZM9.75008 24.0832V24.8332H22.2501V24.0832V23.3332H9.75008V24.0832ZM22.2501 40.7498V39.9998H9.75008V40.7498V41.4998H22.2501V40.7498ZM9.75008 40.7498V39.9998C5.56192 39.9998 2.16675 36.6047 2.16675 32.4165H1.41675H0.666748C0.666748 37.4331 4.73349 41.4998 9.75008 41.4998V40.7498ZM30.5834 32.4165H29.8334C29.8334 36.6047 26.4382 39.9998 22.2501 39.9998V40.7498V41.4998C27.2667 41.4998 31.3334 37.4331 31.3334 32.4165H30.5834ZM22.2501 24.0832V24.8332C26.4382 24.8332 29.8334 28.2283 29.8334 32.4165H30.5834H31.3334C31.3334 27.3999 27.2667 23.3332 22.2501 23.3332V24.0832ZM9.75008 24.0832V23.3332C4.7335 23.3332 0.666748 27.3999 0.666748 32.4165H1.41675H2.16675C2.16675 28.2283 5.56192 24.8332 9.75008 24.8332V24.0832Z" fill="#FAFAFA"/>
</svg>
