<svg width="50" height="50" viewBox="0 0 50 50" fill="none" xmlns="http://www.w3.org/2000/svg">
<g clip-path="url(#clip0_195_3944)">
<g filter="url(#filter0_d_195_3944)">
<path d="M33.3334 12.4998C33.3334 17.1022 29.6025 20.8332 25.0001 20.8332C20.3977 20.8332 16.6667 17.1022 16.6667 12.4998C16.6667 7.89746 20.3977 4.1665 25.0001 4.1665C29.6025 4.1665 33.3334 7.89746 33.3334 12.4998Z" fill="#C26F4C"/>
<path d="M10.4167 35.4165C10.4167 30.8141 14.1477 27.0832 18.7501 27.0832H31.2501C35.8525 27.0832 39.5834 30.8141 39.5834 35.4165C39.5834 40.0189 35.8525 43.7498 31.2501 43.7498H18.7501C14.1477 43.7498 10.4167 40.0189 10.4167 35.4165Z" fill="#C26F4C"/>
<path d="M33.3334 12.4998H32.5834C32.5834 16.688 29.1882 20.0832 25.0001 20.0832V20.8332V21.5832C30.0167 21.5832 34.0834 17.5164 34.0834 12.4998H33.3334ZM25.0001 20.8332V20.0832C20.8119 20.0832 17.4167 16.688 17.4167 12.4998H16.6667H15.9167C15.9167 17.5164 19.9835 21.5832 25.0001 21.5832V20.8332ZM16.6667 12.4998H17.4167C17.4167 8.31168 20.8119 4.9165 25.0001 4.9165V4.1665V3.4165C19.9835 3.4165 15.9167 7.48325 15.9167 12.4998H16.6667ZM25.0001 4.1665V4.9165C29.1882 4.9165 32.5834 8.31168 32.5834 12.4998H33.3334H34.0834C34.0834 7.48325 30.0167 3.4165 25.0001 3.4165V4.1665ZM18.7501 27.0832V27.8332H31.2501V27.0832V26.3332H18.7501V27.0832ZM31.2501 43.7498V42.9998H18.7501V43.7498V44.4998H31.2501V43.7498ZM18.7501 43.7498V42.9998C14.5619 42.9998 11.1667 39.6047 11.1667 35.4165H10.4167H9.66675C9.66675 40.4331 13.7335 44.4998 18.7501 44.4998V43.7498ZM39.5834 35.4165H38.8334C38.8334 39.6047 35.4382 42.9998 31.2501 42.9998V43.7498V44.4998C36.2667 44.4998 40.3334 40.4331 40.3334 35.4165H39.5834ZM31.2501 27.0832V27.8332C35.4382 27.8332 38.8334 31.2283 38.8334 35.4165H39.5834H40.3334C40.3334 30.3999 36.2667 26.3332 31.2501 26.3332V27.0832ZM18.7501 27.0832V26.3332C13.7335 26.3332 9.66675 30.3999 9.66675 35.4165H10.4167H11.1667C11.1667 31.2283 14.5619 27.8332 18.7501 27.8332V27.0832Z" fill="#C26F4C"/>
</g>
</g>
<defs>
<filter id="filter0_d_195_3944" x="5.66675" y="3.4165" width="38.6667" height="49.0835" filterUnits="userSpaceOnUse" color-interpolation-filters="sRGB">
<feFlood flood-opacity="0" result="BackgroundImageFix"/>
<feColorMatrix in="SourceAlpha" type="matrix" values="0 0 0 0 0 0 0 0 0 0 0 0 0 0 0 0 0 0 127 0" result="hardAlpha"/>
<feOffset dy="4"/>
<feGaussianBlur stdDeviation="2"/>
<feComposite in2="hardAlpha" operator="out"/>
<feColorMatrix type="matrix" values="0 0 0 0 0 0 0 0 0 0 0 0 0 0 0 0 0 0 0.25 0"/>
<feBlend mode="normal" in2="BackgroundImageFix" result="effect1_dropShadow_195_3944"/>
<feBlend mode="normal" in="SourceGraphic" in2="effect1_dropShadow_195_3944" result="shape"/>
</filter>
<clipPath id="clip0_195_3944">
<rect width="50" height="50" fill="white"/>
</clipPath>
</defs>
</svg>
