<svg width="22" height="22" viewBox="0 0 22 22" fill="none" xmlns="http://www.w3.org/2000/svg">
<path d="M13.528 6.5327C13.8222 6.24111 13.8243 5.76624 13.5327 5.47205C13.2411 5.17785 12.7662 5.17573 12.472 5.46732L10.6773 7.24609C10.0013 7.91604 9.44886 8.46359 9.05706 8.95146C8.64963 9.45879 8.3547 9.97373 8.27591 10.5918C8.24137 10.8629 8.24137 11.1371 8.27591 11.4082C8.3547 12.0263 8.64963 12.5412 9.05706 13.0485C9.44886 13.5364 10.0013 14.0839 10.6773 14.7539L12.472 16.5327C12.7662 16.8243 13.2411 16.8222 13.5327 16.528C13.8243 16.2338 13.8222 15.7589 13.528 15.4673L11.765 13.72C11.0495 13.0109 10.5587 12.5228 10.2266 12.1093C9.904 11.7076 9.79333 11.4496 9.76387 11.2185C9.74538 11.0734 9.74538 10.9266 9.76387 10.7815C9.79333 10.5504 9.904 10.2924 10.2266 9.89071C10.5587 9.47718 11.0495 8.98914 11.765 8.28001L13.528 6.5327Z" fill="#78BF7B"/>
<path fill-rule="evenodd" clip-rule="evenodd" d="M11 0.25C5.06294 0.25 0.25 5.06294 0.25 11C0.25 16.9371 5.06294 21.75 11 21.75C16.9371 21.75 21.75 16.9371 21.75 11C21.75 5.06294 16.9371 0.25 11 0.25ZM1.75 11C1.75 5.89137 5.89137 1.75 11 1.75C16.1086 1.75 20.25 5.89137 20.25 11C20.25 16.1086 16.1086 20.25 11 20.25C5.89137 20.25 1.75 16.1086 1.75 11Z" fill="#78BF7B"/>
</svg>
